<svg id="Layer_1" data-name="Layer 1" xmlns="http://www.w3.org/2000/svg" viewBox="0 0 564.66 228.19"><defs><style>.cls-1,.cls-2{fill:#E20D13;}.cls-2{font-size:37.83px;font-family:KapraNeue-LightExpanded, KapraNeue LightExpanded;}</style></defs><title>bff</title><path class="cls-1" d="M119.6,56h-.06c-4.77,0-8.67,3.5-8.67,7.77V76.2l8.74-7.81Z" transform="translate(-57.83 -55.98)"/><path class="cls-1" d="M131.63,79.3s0,0,0-.06l-13.82.63-8.26,8.22,13.87-.64c4.76-.22,8.46-3.89,8.22-8.15" transform="translate(-57.83 -55.98)"/><path class="cls-1" d="M90.23,102.06l6.55-9.38L93.66,80.6h-.07c-4.65,1-7.57,5.16-6.49,9.32Z" transform="translate(-57.83 -55.98)"/><path class="cls-1" d="M112.06,98.18a.14.14,0,0,1,0-.06l-13.3,3.44-6,9.69,13.35-3.45c4.58-1.19,7.25-5.51,5.93-9.62" transform="translate(-57.83 -55.98)"/><path class="cls-1" d="M77.51,128.83l4.19-10.41-5.9-11.21-.06,0c-4.31,1.82-6.18,6.47-4.15,10.34Z" transform="translate(-57.83 -55.98)"/><path class="cls-1" d="M97,123.25l0,0-12.08,6-3.35,10.65,12.12-6.07c4.17-2.08,5.67-6.84,3.35-10.57" transform="translate(-57.83 -55.98)"/><path class="cls-1" d="M71.51,154.5l1.91-10.93-8.17-10s0,0-.06,0a7.29,7.29,0,0,0-1.88,10.86Z" transform="translate(-57.83 -55.98)"/><path class="cls-1" d="M88.5,148.67l0,0L78,156.72l-.9,11,10.52-8.12a7.25,7.25,0,0,0,.92-11" transform="translate(-57.83 -55.98)"/><path class="cls-1" d="M70.46,181.27l-.2-11.06-10-8.61,0,0a7.24,7.24,0,0,0,.22,11Z" transform="translate(-57.83 -55.98)"/><path class="cls-1" d="M88,185.5a7.26,7.26,0,0,0-1.39-10.92l-.06,0L78,184.26l1.43,11Z" transform="translate(-57.83 -55.98)"/><path class="cls-1" d="M72.43,196.36l-11.56-6.81,0,0a7.32,7.32,0,0,0,2.48,10.77l11.6,6.84Z" transform="translate(-57.83 -55.98)"/><path class="cls-1" d="M94.33,211.39c2.14-3.82.4-8.51-3.86-10.43l-.07,0L84.2,212l3.91,10.49Z" transform="translate(-57.83 -55.98)"/><path class="cls-1" d="M79.8,222.34,67,217.71l0,0c-1.78,4,.38,8.52,4.8,10.12l12.88,4.65Z" transform="translate(-57.83 -55.98)"/><path class="cls-1" d="M101.62,227.75h-.07L98.32,239.8l6.46,9.42,3.24-12.1c1.12-4.16-1.77-8.38-6.4-9.37" transform="translate(-57.83 -55.98)"/><path class="cls-1" d="M80.87,246.07s0,0,0,.06c-.87,4.2,2.24,8.28,6.93,9.06l13.65,2.29-7-9.13Z" transform="translate(-57.83 -55.98)"/><path class="cls-1" d="M119.72,252.08h-.07v12.41l8.75,7.8V259.84c0-4.27-3.91-7.77-8.68-7.76" transform="translate(-57.83 -55.98)"/><path class="cls-1" d="M100.33,272.42v.06c.36,4.27,4.54,7.49,9.3,7.17l13.85-.93-9.35-7.23Z" transform="translate(-57.83 -55.98)"/><path class="cls-1" d="M74.65,171.79c0-38.59,17.73-73.52,46.28-98.64l-1-1.55c-29,25.46-47.1,61-47.1,100.19,0,46,24.77,86.8,63,112.38l1.06-1.52C99.1,257.4,74.65,217.11,74.65,171.79" transform="translate(-57.83 -55.98)"/><path class="cls-1" d="M560.71,56h.07c4.77,0,8.67,3.5,8.67,7.77V76.2l-8.74-7.81Z" transform="translate(-57.83 -55.98)"/><path class="cls-1" d="M548.69,79.3s0,0,0-.06l13.82.63,8.25,8.22-13.87-.64c-4.76-.22-8.46-3.89-8.21-8.15" transform="translate(-57.83 -55.98)"/><path class="cls-1" d="M590.08,102.06l-6.54-9.38,3.12-12.08h.07c4.64,1,7.56,5.16,6.49,9.32Z" transform="translate(-57.83 -55.98)"/><path class="cls-1" d="M568.25,98.18l0-.06,13.3,3.44,5.95,9.69-13.34-3.45c-4.59-1.19-7.25-5.51-5.94-9.62" transform="translate(-57.83 -55.98)"/><path class="cls-1" d="M602.8,128.83l-4.19-10.41,5.9-11.21.07,0c4.31,1.82,6.17,6.47,4.14,10.34Z" transform="translate(-57.83 -55.98)"/><path class="cls-1" d="M583.37,123.25l0,0,12.08,6,3.35,10.65-12.13-6.07c-4.16-2.08-5.67-6.84-3.34-10.57" transform="translate(-57.83 -55.98)"/><path class="cls-1" d="M608.8,154.5l-1.9-10.93,8.17-10s0,0,.06,0A7.28,7.28,0,0,1,617,144.45Z" transform="translate(-57.83 -55.98)"/><path class="cls-1" d="M591.82,148.67a.1.1,0,0,1,0,0l10.49,8.09.9,11-10.53-8.12a7.25,7.25,0,0,1-.91-11" transform="translate(-57.83 -55.98)"/><path class="cls-1" d="M609.86,181.27l.2-11.06,10-8.61a.1.1,0,0,1,0,0,7.23,7.23,0,0,1-.21,11Z" transform="translate(-57.83 -55.98)"/><path class="cls-1" d="M592.28,185.5a7.26,7.26,0,0,1,1.4-10.92l.05,0,8.61,9.71-1.42,11Z" transform="translate(-57.83 -55.98)"/><path class="cls-1" d="M607.88,196.36l11.56-6.81,0,0A7.33,7.33,0,0,1,617,200.36l-11.6,6.84Z" transform="translate(-57.83 -55.98)"/><path class="cls-1" d="M586,211.39c-2.13-3.82-.4-8.51,3.87-10.43l.06,0,6.2,11.09-3.9,10.49Z" transform="translate(-57.83 -55.98)"/><path class="cls-1" d="M600.52,222.34l12.83-4.63s0,0,0,0c1.79,4-.37,8.52-4.8,10.12l-12.88,4.65Z" transform="translate(-57.83 -55.98)"/><path class="cls-1" d="M578.7,227.75h.06L582,239.8l-6.46,9.42-3.25-12.1c-1.11-4.16,1.77-8.38,6.41-9.37" transform="translate(-57.83 -55.98)"/><path class="cls-1" d="M599.45,246.07s0,0,0,.06c.88,4.2-2.24,8.28-6.93,9.06l-13.65,2.29,7-9.13Z" transform="translate(-57.83 -55.98)"/><path class="cls-1" d="M560.6,252.08h.06v12.41l-8.75,7.8,0-12.45c0-4.27,3.91-7.77,8.68-7.76" transform="translate(-57.83 -55.98)"/><path class="cls-1" d="M580,272.42s0,0,0,.06c-.36,4.27-4.55,7.49-9.3,7.17l-13.85-.93,9.34-7.23Z" transform="translate(-57.83 -55.98)"/><path class="cls-1" d="M605.67,171.79c0-38.59-17.74-73.52-46.28-98.64l1-1.55c29,25.46,47.1,61,47.1,100.19,0,46-24.78,86.8-63,112.38l-1-1.52c37.71-25.25,62.17-65.54,62.17-110.86" transform="translate(-57.83 -55.98)"/><text class="cls-2" transform="translate(437.79 175.93)"> </text><path class="cls-1" d="M183.55,123V72a1,1,0,0,1,1.06-1.06h11.78c8.58,0,14.75,5.11,14.75,12V89a8.8,8.8,0,0,1-3.48,7c-.28.21-.28.57.15.78a9.56,9.56,0,0,1,5.17,8.73v6.66c0,6.89-6.17,12-14.75,12H184.61A1,1,0,0,1,183.55,123Zm12.84-29.37c4.68,0,7.23-3.19,7.23-6.6V84.58c0-4.11-3-6.6-7.23-6.6h-4.33A1,1,0,0,0,191,79.05V92.6a1,1,0,0,0,1.07,1.06Zm1.84,23.13c4.26,0,7.24-2.49,7.24-6.6v-2.84c0-4.11-3-6.6-7.24-6.6h-6.17a1,1,0,0,0-1.07,1.07v13.9a1,1,0,0,0,1.07,1.07Z" transform="translate(-57.83 -55.98)"/><path class="cls-1" d="M221.85,72a1,1,0,0,1,1.06-1.06h19.94A1,1,0,0,1,243.91,72v4.54a1,1,0,0,1-1.06,1.07H230.36a1,1,0,0,0-1.06,1.06V94.23a1,1,0,0,0,1.06,1.06h12.49a1,1,0,0,1,1.06,1.07v4.54a1,1,0,0,1-1.06,1.06H230.36A1,1,0,0,0,229.3,103v20a1,1,0,0,1-1.07,1.06h-5.32a1,1,0,0,1-1.06-1.06Z" transform="translate(-57.83 -55.98)"/><path class="cls-1" d="M251.43,123V72a1,1,0,0,1,1.06-1.06h5.32A1,1,0,0,1,258.87,72V123a1,1,0,0,1-1.06,1.06h-5.32A1,1,0,0,1,251.43,123Z" transform="translate(-57.83 -55.98)"/><path class="cls-1" d="M281.57,72a1,1,0,0,1,1.06-1.06H288A1,1,0,0,1,289,72v44.41a1,1,0,0,0,1.06,1.06h12.49a1,1,0,0,1,1.06,1.07V123a1,1,0,0,1-1.06,1.06H282.63a1,1,0,0,1-1.06-1.06Z" transform="translate(-57.83 -55.98)"/><path class="cls-1" d="M309.3,83.94c0-8.3,6.18-13.41,14.76-13.41s14.75,5.11,14.75,13.41V111c0,8.3-6.17,13.41-14.75,13.41S309.3,119.34,309.3,111Zm14.76,33.41c4.25,0,7.23-2.48,7.23-8V85.64c0-5.53-3-8-7.23-8s-7.24,2.48-7.24,8v23.7C316.82,114.87,319.8,117.35,324.06,117.35Z" transform="translate(-57.83 -55.98)"/><path class="cls-1" d="M347.68,123V72a1,1,0,0,1,1.06-1.06h4c1,0,1.56.21,1.92.92l16.6,32.85a.36.36,0,0,0,.71-.15V72a1,1,0,0,1,1.06-1.06h5.32A1,1,0,0,1,379.46,72V123a1,1,0,0,1-1.07,1.06h-4.11c-.85,0-1.49-.14-1.85-.85L355.83,90.4a.36.36,0,0,0-.71.14V123a1,1,0,0,1-1.06,1.06h-5.32A1,1,0,0,1,347.68,123Z" transform="translate(-57.83 -55.98)"/><path class="cls-1" d="M389.45,72a1,1,0,0,1,1.07-1.06h13.55c8.58,0,14.75,5.11,14.75,13.41v26.39c0,8.3-6.17,13.4-14.75,13.4H390.52a1,1,0,0,1-1.07-1.06ZM397.9,117h6.17c4.25,0,7.23-2.48,7.23-8V86c0-5.53-3-8-7.23-8H397.9a1,1,0,0,0-1,.64v37.74A1,1,0,0,0,397.9,117Z" transform="translate(-57.83 -55.98)"/><path class="cls-1" d="M426.62,83.94c0-8.3,6.17-13.41,14.76-13.41s14.75,5.11,14.75,13.41V111c0,8.3-6.17,13.41-14.75,13.41s-14.76-5.11-14.76-13.41Zm14.76,33.41c4.25,0,7.23-2.48,7.23-8V85.64c0-5.53-3-8-7.23-8s-7.24,2.48-7.24,8v23.7C434.14,114.87,437.12,117.35,441.38,117.35Z" transform="translate(-57.83 -55.98)"/><path class="cls-1" d="M465,123V72a1,1,0,0,1,1.06-1.06h4c1,0,1.56.21,1.92.92l16.6,32.85a.36.36,0,0,0,.71-.15V72a1,1,0,0,1,1.06-1.06h5.32A1,1,0,0,1,496.78,72V123a1,1,0,0,1-1.07,1.06H491.6c-.85,0-1.49-.14-1.85-.85L473.15,90.4a.36.36,0,0,0-.71.14V123a1,1,0,0,1-1.06,1.06h-5.32A1,1,0,0,1,465,123Z" transform="translate(-57.83 -55.98)"/><path class="cls-1" d="M156.06,134.61a1,1,0,0,1,1.06-1.06h19.94a1,1,0,0,1,1.06,1.06v4.54a1,1,0,0,1-1.06,1.06H164.57a1,1,0,0,0-1.06,1.07v15.6a1,1,0,0,0,1.06,1.07h12.49a1,1,0,0,1,1.06,1.06v4.54a1,1,0,0,1-1.06,1.07H164.57a1,1,0,0,0-1.06,1.06v20a1,1,0,0,1-1.07,1.07h-5.32a1,1,0,0,1-1.06-1.07Z" transform="translate(-57.83 -55.98)"/><path class="cls-1" d="M185.64,185.68V134.61a1,1,0,0,1,1.06-1.06H192a1,1,0,0,1,1.07,1.06v51.07a1,1,0,0,1-1.07,1.07H186.7A1,1,0,0,1,185.64,185.68Z" transform="translate(-57.83 -55.98)"/><path class="cls-1" d="M203,134.61a1,1,0,0,1,1.06-1.06h5.32a1,1,0,0,1,1.06,1.06V179a1,1,0,0,0,1.07,1.06H224a1,1,0,0,1,1.07,1.06v4.54a1,1,0,0,1-1.07,1.07H204.08a1,1,0,0,1-1.06-1.07Z" transform="translate(-57.83 -55.98)"/><path class="cls-1" d="M233.44,185.68V134.61a1,1,0,0,1,1.07-1.06h5a1.66,1.66,0,0,1,1.64,1.06l11.63,26.6a.49.49,0,0,0,.92,0l11.64-26.6a1.64,1.64,0,0,1,1.63-1.06h5a1,1,0,0,1,1.07,1.06v51.07a1,1,0,0,1-1.07,1.07h-5.39a1,1,0,0,1-1.06-1.07V156.53c0-.43-.5-.5-.71-.07l-7.66,15.75a1.67,1.67,0,0,1-1.63,1.06H251a1.67,1.67,0,0,1-1.63-1.06l-7.66-15.75c-.21-.43-.71-.36-.71.07v29.15a1,1,0,0,1-1.06,1.07h-5.39A1,1,0,0,1,233.44,185.68Z" transform="translate(-57.83 -55.98)"/><path class="cls-1" d="M295.79,134.61a1,1,0,0,1,1.06-1.06h19.94a1,1,0,0,1,1.06,1.06v4.54a1,1,0,0,1-1.06,1.06H304.3a1,1,0,0,0-1.06,1.07v15.6A1,1,0,0,0,304.3,158h12.49a1,1,0,0,1,1.06,1.06v4.54a1,1,0,0,1-1.06,1.07H304.3a1,1,0,0,0-1.06,1.06v20a1,1,0,0,1-1.07,1.07h-5.32a1,1,0,0,1-1.06-1.07Z" transform="translate(-57.83 -55.98)"/><path class="cls-1" d="M325.3,134.61a1,1,0,0,1,1.06-1.06h19.93a1,1,0,0,1,1.07,1.06v4.54a1,1,0,0,1-1.07,1.06H333.81a1,1,0,0,0-1.06,1.07v14.18a1,1,0,0,0,1.06,1.07h12.48a1,1,0,0,1,1.07,1.06v4.54a1,1,0,0,1-1.07,1.07H333.81a1,1,0,0,0-1.06,1.06V179a1,1,0,0,0,1.06,1.06h12.48a1,1,0,0,1,1.07,1.06v4.54a1,1,0,0,1-1.07,1.07H326.36a1,1,0,0,1-1.06-1.07Z" transform="translate(-57.83 -55.98)"/><path class="cls-1" d="M354,172.49a1,1,0,0,1,1.07-1.06h5.39a1,1,0,0,1,1.06,1.06v.92c0,4.12,2.91,6.6,7.24,6.6,4.11,0,7.23-2.48,7.23-6.6v-.92c0-4.26-4.54-6-9.86-9.65-5.88-4-12.13-7.45-12.13-15v-2.62c0-6.88,6.17-12,14.76-12s14.68,5.11,14.68,12v2.62a1,1,0,0,1-1,1.07h-5.46a1,1,0,0,1-1-1.07v-.92c0-4.11-3.12-6.6-7.23-6.6s-7.24,2.49-7.24,6.6v.92c0,4.26,3.69,5.54,9.65,9.65,5.39,3.76,12.27,7.45,12.27,15v2.63c0,6.88-6.17,12-14.68,12S354,182,354,175.12Z" transform="translate(-57.83 -55.98)"/><path class="cls-1" d="M387.72,134.61a1,1,0,0,1,1.06-1.06h21.78a1,1,0,0,1,1.06,1.06v5a1,1,0,0,1-1.06,1.06h-6.1a1,1,0,0,0-1.07,1.06v44a1,1,0,0,1-1.06,1.07H397a1,1,0,0,1-1.06-1.07v-44a1,1,0,0,0-1.07-1.06h-6.1a1,1,0,0,1-1.06-1.06Z" transform="translate(-57.83 -55.98)"/><path class="cls-1" d="M418.78,185.68V134.61a1,1,0,0,1,1.07-1.06h5.32a1,1,0,0,1,1.06,1.06v51.07a1,1,0,0,1-1.06,1.07h-5.32A1,1,0,0,1,418.78,185.68Z" transform="translate(-57.83 -55.98)"/><path class="cls-1" d="M445.74,185.4l-12.56-50.58c-.28-1.27.64-1.27,1.56-1.27h3.83c1.28,0,1.71,0,2,1.13l8.8,36.68a.33.33,0,0,0,.64,0l8.79-36.68c.29-1.13.71-1.13,2-1.13h3.83c.92,0,1.84,0,1.56,1.27L453.61,185.4c-.28,1.14-.57,1.35-2.13,1.35h-3.61C446.31,186.75,446,186.54,445.74,185.4Z" transform="translate(-57.83 -55.98)"/><path class="cls-1" d="M466.45,185.54l11.63-50.72c.22-1.06.5-1.27,1.35-1.27H484c.85,0,1.14.21,1.35,1.27L497,185.54c.22.85-.28,1.21-1.2,1.21h-4.61c-.85,0-1.21-.21-1.42-1.07l-1.21-4.89c-.07-.43-.28-1.06-1.35-1.06H476.24c-1.07,0-1.28.63-1.35,1.06l-1.2,4.89c-.22.86-.57,1.07-1.42,1.07h-4.61C466.73,186.75,466.24,186.39,466.45,185.54Zm19.93-12.48c.57,0,.78-.22.64-.85l-5-21.36a.36.36,0,0,0-.71,0l-5,21.36c-.14.63.07.85.64.85Z" transform="translate(-57.83 -55.98)"/><path class="cls-1" d="M503.76,134.61a1,1,0,0,1,1.06-1.06h5.32a1,1,0,0,1,1.07,1.06V179a1,1,0,0,0,1.06,1.06h12.49a1,1,0,0,1,1.06,1.06v4.54a1,1,0,0,1-1.06,1.07H504.82a1,1,0,0,1-1.06-1.07Z" transform="translate(-57.83 -55.98)"/><path class="cls-1" d="M168.18,210.7a7.19,7.19,0,0,1,14.38,0v14.52a7.19,7.19,0,0,1-14.38,0ZM175.37,230c2.84,0,4.73-1.93,4.73-5.49V211.38c0-3.56-1.89-5.49-4.73-5.49s-4.73,1.93-4.73,5.49v13.16C170.64,228.1,172.53,230,175.37,230Z" transform="translate(-57.83 -55.98)"/><path class="cls-1" d="M187.93,204.34a.52.52,0,0,1,.57-.57h9.57a.54.54,0,0,1,.57.57v1.06a.54.54,0,0,1-.57.57h-7.19a.54.54,0,0,0-.57.57V216.9a.54.54,0,0,0,.57.57h7.19a.54.54,0,0,1,.57.57v1.05a.54.54,0,0,1-.57.57h-7.19a.54.54,0,0,0-.57.57v11.35a.51.51,0,0,1-.56.56H188.5a.53.53,0,0,1-.57-.56Z" transform="translate(-57.83 -55.98)"/><path class="cls-1" d="M203.63,204.34a.52.52,0,0,1,.57-.57h9.57a.54.54,0,0,1,.57.57v1.06a.54.54,0,0,1-.57.57h-7.19a.54.54,0,0,0-.57.57V216.9a.54.54,0,0,0,.57.57h7.19a.54.54,0,0,1,.57.57v1.05a.54.54,0,0,1-.57.57h-7.19a.54.54,0,0,0-.57.57v11.35a.51.51,0,0,1-.56.56H204.2a.53.53,0,0,1-.57-.56Z" transform="translate(-57.83 -55.98)"/><path class="cls-1" d="M219.33,231.58V204.34a.52.52,0,0,1,.57-.57h1.25a.53.53,0,0,1,.56.57v27.24a.51.51,0,0,1-.56.56H219.9A.53.53,0,0,1,219.33,231.58Z" transform="translate(-57.83 -55.98)"/><path class="cls-1" d="M227.08,210.7a6.77,6.77,0,0,1,7.19-7.11c4.31,0,7.15,2.64,7.15,6.84v1.86c0,.34-.15.56-.53.56h-1.32a.53.53,0,0,1-.57-.56v-1.14c0-3.56-1.89-5.26-4.73-5.26s-4.73,1.93-4.73,5.49v13.16c0,3.56,1.9,5.49,4.73,5.49s4.73-1.71,4.73-5.26v-1.14a.53.53,0,0,1,.57-.56h1.32c.38,0,.53.22.53.56v1.86c0,4.2-2.84,6.84-7.15,6.84a6.77,6.77,0,0,1-7.19-7.11Z" transform="translate(-57.83 -55.98)"/><path class="cls-1" d="M246.38,231.58V204.34a.52.52,0,0,1,.57-.57h1.24a.54.54,0,0,1,.57.57v27.24a.51.51,0,0,1-.57.56H247A.53.53,0,0,1,246.38,231.58Z" transform="translate(-57.83 -55.98)"/><path class="cls-1" d="M253.11,231.5l6.21-27c.11-.57.26-.69.71-.69h.91c.46,0,.61.12.72.69l6.2,27c.12.46-.15.64-.64.64h-.94c-.46,0-.61-.11-.72-.56l-.84-3.37a.63.63,0,0,0-.71-.57h-7a.64.64,0,0,0-.72.57l-.83,3.37c-.11.45-.27.56-.72.56h-.95C253.26,232.14,253,232,253.11,231.5Zm10.67-6.09c.3,0,.41-.11.34-.45l-3.44-14.72a.19.19,0,0,0-.38,0L256.86,225c-.08.34,0,.45.34.45Z" transform="translate(-57.83 -55.98)"/><path class="cls-1" d="M272.22,204.34a.51.51,0,0,1,.56-.57H274a.54.54,0,0,1,.57.57v25a.54.54,0,0,0,.57.57h7.18a.54.54,0,0,1,.57.57v1.06a.53.53,0,0,1-.57.56h-9.57a.52.52,0,0,1-.56-.56Z" transform="translate(-57.83 -55.98)"/><path class="cls-1" d="M293.82,224.81a.53.53,0,0,1,.56-.57h1.33a.51.51,0,0,1,.53.57v.71c0,2.8,1.77,4.51,4.76,4.51,2.8,0,4.73-1.71,4.73-4.51v-.71c0-2.5-3-4-5.64-6-2.91-2.16-6.27-3.93-6.27-7.72v-1.43c0-3.45,2.87-6.09,7.18-6.09s7.15,2.64,7.15,6.09v1.43a.54.54,0,0,1-.57.57h-1.32a.51.51,0,0,1-.53-.57v-.72c0-2.8-1.93-4.5-4.73-4.5s-4.76,1.7-4.76,4.5v.72c0,2.5,2.61,3.82,5.52,6,2.68,2,6.39,3.93,6.39,7.72v1.43c0,3.45-2.87,6.09-7.15,6.09s-7.18-2.64-7.18-6.09Z" transform="translate(-57.83 -55.98)"/><path class="cls-1" d="M313.45,204.34a.52.52,0,0,1,.57-.57h9.57a.53.53,0,0,1,.56.57v1.06a.53.53,0,0,1-.56.57h-7.15a.54.54,0,0,0-.57.57v9.6a.54.54,0,0,0,.57.57h7.15a.53.53,0,0,1,.56.57v1.06a.53.53,0,0,1-.56.57h-7.15a.53.53,0,0,0-.57.56v9.91a.54.54,0,0,0,.57.57h7.15a.53.53,0,0,1,.56.57v1.06a.52.52,0,0,1-.56.56H314a.53.53,0,0,1-.57-.56Z" transform="translate(-57.83 -55.98)"/><path class="cls-1" d="M329.3,204.34a.52.52,0,0,1,.57-.57h1.25a.53.53,0,0,1,.56.57v25a.54.54,0,0,0,.57.57h7.19a.53.53,0,0,1,.56.57v1.06a.52.52,0,0,1-.56.56h-9.57a.53.53,0,0,1-.57-.56Z" transform="translate(-57.83 -55.98)"/><path class="cls-1" d="M344.13,204.34a.52.52,0,0,1,.57-.57h9.57a.53.53,0,0,1,.56.57v1.06a.53.53,0,0,1-.56.57h-7.15a.54.54,0,0,0-.57.57v9.6a.54.54,0,0,0,.57.57h7.15a.53.53,0,0,1,.56.57v1.06a.53.53,0,0,1-.56.57h-7.15a.53.53,0,0,0-.57.56v9.91a.54.54,0,0,0,.57.57h7.15a.53.53,0,0,1,.56.57v1.06a.52.52,0,0,1-.56.56H344.7a.53.53,0,0,1-.57-.56Z" transform="translate(-57.83 -55.98)"/><path class="cls-1" d="M359.53,210.7a6.76,6.76,0,0,1,7.18-7.11c4.31,0,7.15,2.64,7.15,6.84v1.86c0,.34-.15.56-.53.56H372a.53.53,0,0,1-.57-.56v-1.14c0-3.56-1.89-5.26-4.73-5.26s-4.73,1.93-4.73,5.49v13.16c0,3.56,1.9,5.49,4.73,5.49s4.73-1.71,4.73-5.26v-1.14a.53.53,0,0,1,.57-.56h1.32c.38,0,.53.22.53.56v1.86c0,4.2-2.84,6.84-7.15,6.84a6.76,6.76,0,0,1-7.18-7.11Z" transform="translate(-57.83 -55.98)"/><path class="cls-1" d="M376.62,204.34a.54.54,0,0,1,.57-.57h10.63a.52.52,0,0,1,.57.57v1.17a.54.54,0,0,1-.57.57h-3.59a.54.54,0,0,0-.57.57v24.93a.51.51,0,0,1-.57.56h-1.28a.53.53,0,0,1-.57-.56V206.65a.54.54,0,0,0-.57-.57h-3.48a.52.52,0,0,1-.57-.57Z" transform="translate(-57.83 -55.98)"/><path class="cls-1" d="M392.29,231.58V204.34a.51.51,0,0,1,.56-.57h1.25a.54.54,0,0,1,.57.57v27.24a.51.51,0,0,1-.57.56h-1.25A.52.52,0,0,1,392.29,231.58Z" transform="translate(-57.83 -55.98)"/><path class="cls-1" d="M400,210.7a7.19,7.19,0,0,1,14.38,0v14.52a7.19,7.19,0,0,1-14.38,0ZM407.23,230c2.83,0,4.73-1.93,4.73-5.49V211.38c0-3.56-1.9-5.49-4.73-5.49s-4.73,1.93-4.73,5.49v13.16C402.5,228.1,404.39,230,407.23,230Z" transform="translate(-57.83 -55.98)"/><path class="cls-1" d="M419.79,231.58V204.34c0-.34.15-.57.49-.57h.87a.76.76,0,0,1,.76.5l10.55,21.14a.19.19,0,0,0,.38-.07v-21a.54.54,0,0,1,.57-.57h1.17a.54.54,0,0,1,.57.57v27.24a.53.53,0,0,1-.57.56h-.83a.72.72,0,0,1-.76-.45l-10.52-21.11a.2.2,0,0,0-.38.08v20.92a.52.52,0,0,1-.56.56h-1.17A.53.53,0,0,1,419.79,231.58Z" transform="translate(-57.83 -55.98)"/><path class="cls-1" d="M447.74,226.7c0-3.41,3.79-5.68,6.4-7.72s5.52-3.86,5.52-6v-.71c0-2.8-1.93-4.51-4.73-4.51s-4.77,1.71-4.77,4.51V213a.53.53,0,0,1-.56.57h-1.29a.54.54,0,0,1-.57-.57v-1.43c0-3.44,2.88-6.09,7.19-6.09s7.15,2.65,7.15,6.09V213c0,3.41-3.48,5.56-6.28,7.72-2.61,2-5.64,3.86-5.64,6v2.57a.54.54,0,0,0,.57.57h10.48a.53.53,0,0,1,.57.56v1.18a.53.53,0,0,1-.57.56h-12.9a.53.53,0,0,1-.57-.56Z" transform="translate(-57.83 -55.98)"/><path class="cls-1" d="M466.54,212.59a7.19,7.19,0,0,1,14.38,0V225a7.19,7.19,0,0,1-14.38,0Zm7.19,17.25c2.84,0,4.73-1.93,4.73-5.49V213.27c0-3.56-1.89-5.49-4.73-5.49s-4.73,1.93-4.73,5.49v11.08C469,227.91,470.89,229.84,473.73,229.84Z" transform="translate(-57.83 -55.98)"/><path class="cls-1" d="M490,231.58V209.75c0-.3-.16-.38-.38-.15l-3.25,2.91a.51.51,0,0,1-.84,0l-.75-.87c-.27-.3-.31-.6,0-.87l5.22-4.84a.89.89,0,0,1,.56-.26h1.25a.53.53,0,0,1,.57.56v25.35a.51.51,0,0,1-.57.56H490.6A.52.52,0,0,1,490,231.58Z" transform="translate(-57.83 -55.98)"/><path class="cls-1" d="M497.79,226.05v-2.68a5.22,5.22,0,0,1,2.46-4.62c.38-.22.34-.37,0-.6a5.37,5.37,0,0,1-2.46-4.65v-1.93c0-3.48,2.88-6.09,7.15-6.09s7.19,2.61,7.19,6.09v1.93a5.38,5.38,0,0,1-2.42,4.65c-.38.23-.46.38,0,.6a5.31,5.31,0,0,1,2.46,4.62v2.68c0,3.67-2.88,6.28-7.19,6.28S497.79,229.72,497.79,226.05Zm11.92-13.27v-.49c0-2.8-1.89-4.51-4.77-4.51s-4.73,1.71-4.73,4.51v.49c0,2.8,1.89,4.5,4.73,4.5S509.71,215.58,509.71,212.78Zm0,12.56v-1.25c0-2.8-1.89-4.5-4.77-4.5s-4.73,1.7-4.73,4.5v1.25a4.36,4.36,0,0,0,4.73,4.69C507.82,230,509.71,228.32,509.71,225.34Z" transform="translate(-57.83 -55.98)"/></svg>