<svg xmlns="http://www.w3.org/2000/svg" viewBox="0 0 289.43 77.25"><defs><style>.cls-1{fill:#e20d13;}</style></defs><title>Asset 2</title><g id="Layer_2" data-name="Layer 2"><g id="Layer_1-2" data-name="Layer 1"><path class="cls-1" d="M0,63.28V9.48C0,2.69,4.09,0,10.58,0S20.66,2.59,20.66,9.48V32.24H11.08V10.58c0-1.7-.1-1.8-.6-1.8s-.5.1-.5,1.6V62c0,1.7,0,1.6.5,1.6s.6.1.6-1.7V38.63h9.58V63.18c0,7.38-3.69,9.88-10.18,9.88C3.29,73.06,0,70.56,0,63.28Z"/><path class="cls-1" d="M25.75,63.38V9.58C25.75,3.09,29.94,0,36.33,0,43,0,46.91,3.09,46.91,9.58v53.8c0,7.18-4.19,9.68-10.58,9.68S25.75,70.56,25.75,63.38ZM36.83,62V10.18c0-1.3-.1-1.4-.5-1.4s-.6.1-.6,1.4V62c0,1.5.1,1.6.6,1.6S36.83,63.38,36.83,62Z"/><path class="cls-1" d="M61.58,72.46H51.9V.6H63.37l6,57.59L66,17.47V.6h9.28V72.46H64.47l-5.89-55,3,35Z"/><path class="cls-1" d="M80.14,63.18V40.92h9.68v21c0,1.7.1,1.8.5,1.8s.6-.1.6-1.8v-19c0-2.2-.3-2.3-4.19-5-5.19-3.5-6.49-5.29-6.59-9.68V9.08c0-5.89,4-9.08,10.48-9.08,6.29,0,10.08,3.09,10.08,8V28.44H90.92V10.38c0-1.5-.1-1.6-.6-1.6s-.5.1-.5,1.6V26.85c0,1.59-.2,1.5,5.19,5.19,4.39,3.09,5.69,4.79,5.69,9.48V63.08c0,7.48-3.59,10-10.38,10C83.23,73.06,80.14,70.56,80.14,63.18Z"/><path class="cls-1" d="M119.86,72.46H105.59V.6h14.27V11.28h-4.39V31.14h4.39V41.72h-4.39v20h4.39Z"/><path class="cls-1" d="M135.33,77.25,133.64,73c-5.29-.5-8.69-3.2-8.69-9.58V9.58C125,3.09,129.14,0,135.53,0c6.69,0,10.58,3.09,10.58,9.58v53.8c0,4-1.3,6.48-3.49,8l3.09,5.89ZM136,62V10.18c0-1.3-.1-1.4-.5-1.4s-.6.1-.6,1.4V62c0,1.5.1,1.6.6,1.6S136,63.38,136,62Z"/><path class="cls-1" d="M151,63.38V.6h9.88V62c0,1.5.1,1.6.7,1.6.3,0,.4-.2.4-1.6V.6h10V63.38c0,7.18-4.09,9.68-10.48,9.68S151,70.56,151,63.38Z"/><path class="cls-1" d="M191.22,72.46H177V.6h14.27V11.28h-4.39V31.14h4.39V41.72h-4.39v20h4.39Z"/><path class="cls-1" d="M205.79,72.46h-9.68V.6h11.48l6,57.59-3.4-40.72V.6h9.29V72.46H208.69l-5.89-55,3,35Z"/><path class="cls-1" d="M224.45,63.28V9.48C224.45,2.69,228.55,0,235,0s10.08,2.59,10.08,9.48V32.24h-9.58V10.58c0-1.7-.1-1.8-.6-1.8s-.49.1-.49,1.6V62c0,1.7,0,1.6.49,1.6s.6.1.6-1.7V38.63h9.58V63.18c0,7.38-3.69,9.88-10.18,9.88C227.75,73.06,224.45,70.56,224.45,63.28Z"/><path class="cls-1" d="M264.38,72.46H250.1V.6h14.28V11.28H260V31.14h4.4V41.72H260v20h4.4Z"/><path class="cls-1" d="M268.87,63.18V40.92h9.68v21c0,1.7.1,1.8.5,1.8s.6-.1.6-1.8v-19c0-2.2-.3-2.3-4.2-5-5.19-3.5-6.48-5.29-6.58-9.68V9.08c0-5.89,4-9.08,10.48-9.08,6.28,0,10.08,3.09,10.08,8V28.44h-9.78V10.38c0-1.5-.1-1.6-.6-1.6s-.5.1-.5,1.6V26.85c0,1.59-.2,1.5,5.19,5.19,4.39,3.09,5.69,4.79,5.69,9.48V63.08c0,7.48-3.6,10-10.38,10C272,73.06,268.87,70.56,268.87,63.18Z"/></g></g></svg>